<?xml version="1.0" encoding="utf-8"?>
<!-- Generator: Adobe Illustrator 23.0.2, SVG Export Plug-In . SVG Version: 6.00 Build 0)  -->
<svg version="1.1" id="Layer_1" xmlns="http://www.w3.org/2000/svg" xmlns:xlink="http://www.w3.org/1999/xlink" x="0px" y="0px"
	 viewBox="0 0 61.7 18.1" style="enable-background:new 0 0 61.7 18.1;" xml:space="preserve">
<style type="text/css">
	.st0{clip-path:url(#SVGID_2_);}
	.st1{clip-path:url(#SVGID_4_);}
	.st2{clip-path:url(#SVGID_6_);}
	.st3{clip-path:url(#SVGID_9_);}
	.st4{clip-path:url(#SVGID_10_);fill:url(#SVGID_11_);}
	.st5{fill:url(#SVGID_12_);}
	.st6{clip-path:url(#SVGID_14_);}
	.st7{clip-path:url(#SVGID_17_);}
	.st8{clip-path:url(#SVGID_18_);fill:url(#SVGID_19_);}
	.st9{fill:url(#SVGID_20_);}
	.st10{clip-path:url(#SVGID_22_);}
	.st11{clip-path:url(#SVGID_25_);}
	.st12{clip-path:url(#SVGID_26_);fill:url(#SVGID_27_);}
	.st13{fill:url(#SVGID_28_);}
	.st14{clip-path:url(#SVGID_30_);}
	.st15{clip-path:url(#SVGID_33_);}
	.st16{clip-path:url(#SVGID_34_);fill:url(#SVGID_35_);}
	.st17{fill:url(#SVGID_36_);}
	.st18{clip-path:url(#SVGID_38_);}
	.st19{clip-path:url(#SVGID_41_);}
	.st20{clip-path:url(#SVGID_42_);fill:url(#SVGID_43_);}
	.st21{fill:url(#SVGID_44_);}
	.st22{clip-path:url(#SVGID_46_);}
	.st23{clip-path:url(#SVGID_49_);}
	.st24{clip-path:url(#SVGID_50_);fill:url(#SVGID_51_);}
	.st25{fill:url(#SVGID_52_);}
	.st26{clip-path:url(#SVGID_54_);}
	.st27{clip-path:url(#SVGID_57_);}
	.st28{clip-path:url(#SVGID_58_);fill:url(#SVGID_59_);}
	.st29{fill:url(#SVGID_60_);}
	.st30{clip-path:url(#SVGID_62_);}
	.st31{clip-path:url(#SVGID_65_);}
	.st32{clip-path:url(#SVGID_66_);fill:url(#SVGID_67_);}
	.st33{fill:url(#SVGID_68_);}
	.st34{enable-background:new    ;}
	.st35{fill:#FFFFFF;}
</style>
<title>Coming Soon Converted</title>
<g>
	<g>
		<defs>
			<rect id="SVGID_1_" width="61.8" height="18.1"/>
		</defs>
		<clipPath id="SVGID_2_">
			<use xlink:href="#SVGID_1_"  style="overflow:visible;"/>
		</clipPath>
		<g class="st0">
			<g>
				<g>
					<g>
						<defs>
							<path id="SVGID_3_" d="M62.8,17.3c0,1.4-1.2,2.6-2.6,2.6H1.4c-1.4,0-2.6-1.2-2.6-2.6v-35.2c0-1.4,1.2-2.6,2.6-2.6h58.8
								c1.4,0,2.6,1.2,2.6,2.6V17.3z"/>
						</defs>
						<clipPath id="SVGID_4_">
							<use xlink:href="#SVGID_3_"  style="overflow:visible;"/>
						</clipPath>
						<g class="st1">
							
								<image style="overflow:visible;enable-background:new    ;" width="65" height="41" xlink:href="BE3F9C578CC4010.png"  transform="matrix(1 0 0 1 -1.6611 -20.9)">
							</image>
							<g>
								<g>
									<defs>
										<rect id="SVGID_5_" x="-1.2" y="-20.4" width="64" height="40.4"/>
									</defs>
									<clipPath id="SVGID_6_">
										<use xlink:href="#SVGID_5_"  style="overflow:visible;"/>
									</clipPath>
									<g class="st2">
										<g>
											<g>
												<defs>
													<polygon id="SVGID_7_" points="1,40.7 2,40.7 1,41.7 													"/>
												</defs>
												<defs>
													<polygon id="SVGID_8_" points="-1,38.7 -2,38.7 -1,37.7 													"/>
												</defs>
												<clipPath id="SVGID_9_">
													<use xlink:href="#SVGID_7_"  style="overflow:visible;"/>
												</clipPath>
												<clipPath id="SVGID_10_" class="st3">
													<use xlink:href="#SVGID_8_"  style="overflow:visible;"/>
												</clipPath>
												
													<linearGradient id="SVGID_11_" gradientUnits="userSpaceOnUse" x1="112.3991" y1="1237.2706" x2="112.3991" y2="1251.5857" gradientTransform="matrix(-1.5958 -0.8553 -2.2132 4.1279 2980.3911 -5049.7178)">
													<stop  offset="0" style="stop-color:#000000"/>
													<stop  offset="0.1423" style="stop-color:#060606"/>
													<stop  offset="0.3377" style="stop-color:#181818"/>
													<stop  offset="0.5641" style="stop-color:#353535"/>
													<stop  offset="0.8117" style="stop-color:#5D5D5D"/>
													<stop  offset="0.9946" style="stop-color:#808080"/>
												</linearGradient>
												<path class="st4" d="M118.9-8.4C36.2,38.2-17.7,19.8-4.2-48.7C16-47.9,39.2-34.6,56.4-28.3L118.9-8.4z"/>
											</g>
										</g>
										
											<linearGradient id="SVGID_12_" gradientUnits="userSpaceOnUse" x1="112.3991" y1="1237.2706" x2="112.3991" y2="1251.5857" gradientTransform="matrix(-1.5958 -0.8553 -2.2132 4.1279 2980.3911 -5049.7178)">
											<stop  offset="0" style="stop-color:#FFFFFF"/>
											<stop  offset="9.927747e-02" style="stop-color:#F9F9F9"/>
											<stop  offset="0.2358" style="stop-color:#E7E7E7"/>
											<stop  offset="0.3939" style="stop-color:#CACACA"/>
											<stop  offset="0.5683" style="stop-color:#A1A1A1"/>
											<stop  offset="0.756" style="stop-color:#6D6D6D"/>
											<stop  offset="0.952" style="stop-color:#2F2F2F"/>
											<stop  offset="0.9946" style="stop-color:#202020"/>
										</linearGradient>
										<path class="st5" d="M118.9-8.4C36.2,38.2-17.7,19.8-4.2-48.7C16-47.9,39.2-34.6,56.4-28.3L118.9-8.4z"/>
									</g>
								</g>
								<g>
									<defs>
										<rect id="SVGID_13_" x="-1.2" y="-20.4" width="64" height="40.4"/>
									</defs>
									<clipPath id="SVGID_14_">
										<use xlink:href="#SVGID_13_"  style="overflow:visible;"/>
									</clipPath>
									<g class="st6">
										<g>
											<g>
												<defs>
													<polygon id="SVGID_15_" points="1,40.7 2,40.7 1,41.7 													"/>
												</defs>
												<defs>
													<polygon id="SVGID_16_" points="-1,38.7 -2,38.7 -1,37.7 													"/>
												</defs>
												<clipPath id="SVGID_17_">
													<use xlink:href="#SVGID_15_"  style="overflow:visible;"/>
												</clipPath>
												<clipPath id="SVGID_18_" class="st7">
													<use xlink:href="#SVGID_16_"  style="overflow:visible;"/>
												</clipPath>
												
													<linearGradient id="SVGID_19_" gradientUnits="userSpaceOnUse" x1="680.2834" y1="1296.7235" x2="680.2834" y2="1314.3948" gradientTransform="matrix(0.3224 1.863 4.0591 -0.7019 -5497.5278 -353.5945)">
													<stop  offset="0" style="stop-color:#000000"/>
													<stop  offset="0.1423" style="stop-color:#060606"/>
													<stop  offset="0.3377" style="stop-color:#181818"/>
													<stop  offset="0.5641" style="stop-color:#353535"/>
													<stop  offset="0.8117" style="stop-color:#5D5D5D"/>
													<stop  offset="0.9946" style="stop-color:#808080"/>
												</linearGradient>
												<path class="st8" d="M-22.6-42.2C74.6-27.5,85.3,12.3,3.7,47.6C-6.8,36.4-5.6,15.9-8.6,3L-22.6-42.2z"/>
											</g>
										</g>
										
											<linearGradient id="SVGID_20_" gradientUnits="userSpaceOnUse" x1="680.2834" y1="1296.7235" x2="680.2834" y2="1314.3948" gradientTransform="matrix(0.3224 1.863 4.0591 -0.7019 -5497.5278 -353.5945)">
											<stop  offset="0" style="stop-color:#FFFFFF"/>
											<stop  offset="9.927747e-02" style="stop-color:#F9F9F9"/>
											<stop  offset="0.2358" style="stop-color:#E7E7E7"/>
											<stop  offset="0.3939" style="stop-color:#CACACA"/>
											<stop  offset="0.5683" style="stop-color:#A1A1A1"/>
											<stop  offset="0.756" style="stop-color:#6D6D6D"/>
											<stop  offset="0.952" style="stop-color:#2F2F2F"/>
											<stop  offset="0.9946" style="stop-color:#202020"/>
										</linearGradient>
										<path class="st9" d="M-22.6-42.2C74.6-27.5,85.3,12.3,3.7,47.6C-6.8,36.4-5.6,15.9-8.6,3L-22.6-42.2z"/>
									</g>
								</g>
								<g>
									<defs>
										<rect id="SVGID_21_" x="-1.2" y="-20.4" width="64" height="40.4"/>
									</defs>
									<clipPath id="SVGID_22_">
										<use xlink:href="#SVGID_21_"  style="overflow:visible;"/>
									</clipPath>
									<g class="st10">
										<g>
											<g>
												<defs>
													<polygon id="SVGID_23_" points="1,40.7 2,40.7 1,41.7 													"/>
												</defs>
												<defs>
													<polygon id="SVGID_24_" points="-1,38.7 -2,38.7 -1,37.7 													"/>
												</defs>
												<clipPath id="SVGID_25_">
													<use xlink:href="#SVGID_23_"  style="overflow:visible;"/>
												</clipPath>
												<clipPath id="SVGID_26_" class="st11">
													<use xlink:href="#SVGID_24_"  style="overflow:visible;"/>
												</clipPath>
												
													<linearGradient id="SVGID_27_" gradientUnits="userSpaceOnUse" x1="285.296" y1="1273.0518" x2="285.296" y2="1290.3402" gradientTransform="matrix(-1.2353 1.4314 3.1182 2.6919 -3636.8284 -3862.8389)">
													<stop  offset="0" style="stop-color:#000000"/>
													<stop  offset="0.1423" style="stop-color:#060606"/>
													<stop  offset="0.3377" style="stop-color:#181818"/>
													<stop  offset="0.5641" style="stop-color:#353535"/>
													<stop  offset="0.8117" style="stop-color:#5D5D5D"/>
													<stop  offset="0.9946" style="stop-color:#808080"/>
												</linearGradient>
												<path class="st12" d="M36.8-54c43.6,56.7,1.6,87.2-93.3,69.8c7-12.2,32.9-24.6,46.8-34.3L36.8-54z"/>
											</g>
										</g>
										
											<linearGradient id="SVGID_28_" gradientUnits="userSpaceOnUse" x1="285.296" y1="1273.0518" x2="285.296" y2="1290.3402" gradientTransform="matrix(-1.2353 1.4314 3.1182 2.6919 -3636.8284 -3862.8389)">
											<stop  offset="0" style="stop-color:#FFFFFF"/>
											<stop  offset="9.927747e-02" style="stop-color:#F9F9F9"/>
											<stop  offset="0.2358" style="stop-color:#E7E7E7"/>
											<stop  offset="0.3939" style="stop-color:#CACACA"/>
											<stop  offset="0.5683" style="stop-color:#A1A1A1"/>
											<stop  offset="0.756" style="stop-color:#6D6D6D"/>
											<stop  offset="0.952" style="stop-color:#2F2F2F"/>
											<stop  offset="0.9946" style="stop-color:#202020"/>
										</linearGradient>
										<path class="st13" d="M36.8-54c43.6,56.7,1.6,87.2-93.3,69.8c7-12.2,32.9-24.6,46.8-34.3L36.8-54z"/>
									</g>
								</g>
								<g>
									<defs>
										<rect id="SVGID_29_" x="-1.2" y="-20.4" width="64" height="40.4"/>
									</defs>
									<clipPath id="SVGID_30_">
										<use xlink:href="#SVGID_29_"  style="overflow:visible;"/>
									</clipPath>
									<g class="st14">
										<g>
											<g>
												<defs>
													<polygon id="SVGID_31_" points="1,40.7 2,40.7 1,41.7 													"/>
												</defs>
												<defs>
													<polygon id="SVGID_32_" points="-1,38.7 -2,38.7 -1,37.7 													"/>
												</defs>
												<clipPath id="SVGID_33_">
													<use xlink:href="#SVGID_31_"  style="overflow:visible;"/>
												</clipPath>
												<clipPath id="SVGID_34_" class="st15">
													<use xlink:href="#SVGID_32_"  style="overflow:visible;"/>
												</clipPath>
												
													<linearGradient id="SVGID_35_" gradientUnits="userSpaceOnUse" x1="239.3668" y1="1249.0369" x2="239.3668" y2="1265.3663" gradientTransform="matrix(-1.3756 1.2971 3.1824 3.376 -3650.4092 -4561.6255)">
													<stop  offset="0" style="stop-color:#000000"/>
													<stop  offset="0.1423" style="stop-color:#060606"/>
													<stop  offset="0.3377" style="stop-color:#181818"/>
													<stop  offset="0.5641" style="stop-color:#353535"/>
													<stop  offset="0.8117" style="stop-color:#5D5D5D"/>
													<stop  offset="0.9946" style="stop-color:#808080"/>
												</linearGradient>
												<path class="st16" d="M56.3-56.6C98.4,8,51.7,35.5-47.8,6.9c8.3-12.1,36.7-22.4,52.2-31.1L56.3-56.6z"/>
											</g>
										</g>
										
											<linearGradient id="SVGID_36_" gradientUnits="userSpaceOnUse" x1="239.3668" y1="1249.0369" x2="239.3668" y2="1265.3663" gradientTransform="matrix(-1.3756 1.2971 3.1824 3.376 -3650.4092 -4561.6255)">
											<stop  offset="0" style="stop-color:#FFFFFF"/>
											<stop  offset="9.927747e-02" style="stop-color:#F9F9F9"/>
											<stop  offset="0.2358" style="stop-color:#E7E7E7"/>
											<stop  offset="0.3939" style="stop-color:#CACACA"/>
											<stop  offset="0.5683" style="stop-color:#A1A1A1"/>
											<stop  offset="0.756" style="stop-color:#6D6D6D"/>
											<stop  offset="0.952" style="stop-color:#2F2F2F"/>
											<stop  offset="0.9946" style="stop-color:#202020"/>
										</linearGradient>
										<path class="st17" d="M56.3-56.6C98.4,8,51.7,35.5-47.8,6.9c8.3-12.1,36.7-22.4,52.2-31.1L56.3-56.6z"/>
									</g>
								</g>
								<g>
									<defs>
										<rect id="SVGID_37_" x="-1.2" y="-20.4" width="64" height="40.4"/>
									</defs>
									<clipPath id="SVGID_38_">
										<use xlink:href="#SVGID_37_"  style="overflow:visible;"/>
									</clipPath>
									<g class="st18">
										<g>
											<g>
												<defs>
													<polygon id="SVGID_39_" points="1,40.7 2,40.7 1,41.7 													"/>
												</defs>
												<defs>
													<polygon id="SVGID_40_" points="-1,38.7 -2,38.7 -1,37.7 													"/>
												</defs>
												<clipPath id="SVGID_41_">
													<use xlink:href="#SVGID_39_"  style="overflow:visible;"/>
												</clipPath>
												<clipPath id="SVGID_42_" class="st19">
													<use xlink:href="#SVGID_40_"  style="overflow:visible;"/>
												</clipPath>
												
													<linearGradient id="SVGID_43_" gradientUnits="userSpaceOnUse" x1="140.7087" y1="1154.2574" x2="140.7087" y2="1172.1548" gradientTransform="matrix(0.5278 -1.8156 -4.3459 -1.264 5027.5664 1722.3193)">
													<stop  offset="0" style="stop-color:#000000"/>
													<stop  offset="0.1423" style="stop-color:#060606"/>
													<stop  offset="0.3377" style="stop-color:#181818"/>
													<stop  offset="0.5641" style="stop-color:#353535"/>
													<stop  offset="0.8117" style="stop-color:#5D5D5D"/>
													<stop  offset="0.9946" style="stop-color:#808080"/>
												</linearGradient>
												<path class="st20" d="M58.4,49.6c-85.7-41.7-67.6-80.4,38.7-88c2.4,13.1-13.6,31-20,43.4L58.4,49.6z"/>
											</g>
										</g>
										
											<linearGradient id="SVGID_44_" gradientUnits="userSpaceOnUse" x1="140.7087" y1="1154.2574" x2="140.7087" y2="1172.1548" gradientTransform="matrix(0.5278 -1.8156 -4.3459 -1.264 5027.5664 1722.3193)">
											<stop  offset="0" style="stop-color:#FFFFFF"/>
											<stop  offset="9.927747e-02" style="stop-color:#F9F9F9"/>
											<stop  offset="0.2358" style="stop-color:#E7E7E7"/>
											<stop  offset="0.3939" style="stop-color:#CACACA"/>
											<stop  offset="0.5683" style="stop-color:#A1A1A1"/>
											<stop  offset="0.756" style="stop-color:#6D6D6D"/>
											<stop  offset="0.952" style="stop-color:#2F2F2F"/>
											<stop  offset="0.9946" style="stop-color:#202020"/>
										</linearGradient>
										<path class="st21" d="M58.4,49.6c-85.7-41.7-67.6-80.4,38.7-88c2.4,13.1-13.6,31-20,43.4L58.4,49.6z"/>
									</g>
								</g>
								<g>
									<defs>
										<rect id="SVGID_45_" x="-1.2" y="-20.4" width="64" height="40.4"/>
									</defs>
									<clipPath id="SVGID_46_">
										<use xlink:href="#SVGID_45_"  style="overflow:visible;"/>
									</clipPath>
									<g class="st22">
										<g>
											<g>
												<defs>
													<polygon id="SVGID_47_" points="1,40.7 2,40.7 1,41.7 													"/>
												</defs>
												<defs>
													<polygon id="SVGID_48_" points="-1,38.7 -2,38.7 -1,37.7 													"/>
												</defs>
												<clipPath id="SVGID_49_">
													<use xlink:href="#SVGID_47_"  style="overflow:visible;"/>
												</clipPath>
												<clipPath id="SVGID_50_" class="st23">
													<use xlink:href="#SVGID_48_"  style="overflow:visible;"/>
												</clipPath>
												
													<linearGradient id="SVGID_51_" gradientUnits="userSpaceOnUse" x1="185.3293" y1="1232.5117" x2="185.3293" y2="1250.03" gradientTransform="matrix(0.5871 -1.8592 -6.2021 -1.9599 7642.4951 2775.6501)">
													<stop  offset="0" style="stop-color:#000000"/>
													<stop  offset="0.1423" style="stop-color:#060606"/>
													<stop  offset="0.3377" style="stop-color:#181818"/>
													<stop  offset="0.5641" style="stop-color:#353535"/>
													<stop  offset="0.8117" style="stop-color:#5D5D5D"/>
													<stop  offset="0.9946" style="stop-color:#808080"/>
												</linearGradient>
												<path class="st24" d="M76.6,57.7C-49.3,5.6-29.1-34,119.1-32.6c5.1,14.1-14.9,31.9-22.2,44.5L76.6,57.7z"/>
											</g>
										</g>
										
											<linearGradient id="SVGID_52_" gradientUnits="userSpaceOnUse" x1="185.3293" y1="1232.5117" x2="185.3293" y2="1250.03" gradientTransform="matrix(0.5871 -1.8592 -6.2021 -1.9599 7642.4951 2775.6501)">
											<stop  offset="0" style="stop-color:#FFFFFF"/>
											<stop  offset="9.927747e-02" style="stop-color:#F9F9F9"/>
											<stop  offset="0.2358" style="stop-color:#E7E7E7"/>
											<stop  offset="0.3939" style="stop-color:#CACACA"/>
											<stop  offset="0.5683" style="stop-color:#A1A1A1"/>
											<stop  offset="0.756" style="stop-color:#6D6D6D"/>
											<stop  offset="0.952" style="stop-color:#2F2F2F"/>
											<stop  offset="0.9946" style="stop-color:#202020"/>
										</linearGradient>
										<path class="st25" d="M76.6,57.7C-49.3,5.6-29.1-34,119.1-32.6c5.1,14.1-14.9,31.9-22.2,44.5L76.6,57.7z"/>
									</g>
								</g>
								<g>
									<defs>
										<rect id="SVGID_53_" x="-1.2" y="-20.4" width="64" height="40.4"/>
									</defs>
									<clipPath id="SVGID_54_">
										<use xlink:href="#SVGID_53_"  style="overflow:visible;"/>
									</clipPath>
									<g class="st26">
										<g>
											<g>
												<defs>
													<polygon id="SVGID_55_" points="1,40.7 2,40.7 1,41.7 													"/>
												</defs>
												<defs>
													<polygon id="SVGID_56_" points="-1,38.7 -2,38.7 -1,37.7 													"/>
												</defs>
												<clipPath id="SVGID_57_">
													<use xlink:href="#SVGID_55_"  style="overflow:visible;"/>
												</clipPath>
												<clipPath id="SVGID_58_" class="st27">
													<use xlink:href="#SVGID_56_"  style="overflow:visible;"/>
												</clipPath>
												
													<linearGradient id="SVGID_59_" gradientUnits="userSpaceOnUse" x1="195.8341" y1="1229.9783" x2="195.8341" y2="1247.2125" gradientTransform="matrix(0.8909 -1.7582 -5.8015 -2.9411 7057.0366 3984.8489)">
													<stop  offset="0" style="stop-color:#000000"/>
													<stop  offset="0.1423" style="stop-color:#060606"/>
													<stop  offset="0.3377" style="stop-color:#181818"/>
													<stop  offset="0.5641" style="stop-color:#353535"/>
													<stop  offset="0.8117" style="stop-color:#5D5D5D"/>
													<stop  offset="0.9946" style="stop-color:#808080"/>
												</linearGradient>
												<path class="st28" d="M51.9,60.3c-110.5-64.5-80.1-102,65.9-85.6c1.3,14.6-23.2,30.2-33.7,42.1L51.9,60.3z"/>
											</g>
										</g>
										
											<linearGradient id="SVGID_60_" gradientUnits="userSpaceOnUse" x1="195.8341" y1="1229.9783" x2="195.8341" y2="1247.2125" gradientTransform="matrix(0.8909 -1.7582 -5.8015 -2.9411 7057.0366 3984.8489)">
											<stop  offset="0" style="stop-color:#FFFFFF"/>
											<stop  offset="9.927747e-02" style="stop-color:#F9F9F9"/>
											<stop  offset="0.2358" style="stop-color:#E7E7E7"/>
											<stop  offset="0.3939" style="stop-color:#CACACA"/>
											<stop  offset="0.5683" style="stop-color:#A1A1A1"/>
											<stop  offset="0.756" style="stop-color:#6D6D6D"/>
											<stop  offset="0.952" style="stop-color:#2F2F2F"/>
											<stop  offset="0.9946" style="stop-color:#202020"/>
										</linearGradient>
										<path class="st29" d="M51.9,60.3c-110.5-64.5-80.1-102,65.9-85.6c1.3,14.6-23.2,30.2-33.7,42.1L51.9,60.3z"/>
									</g>
								</g>
								<g>
									<defs>
										<rect id="SVGID_61_" x="-1.2" y="-20.4" width="64" height="40.4"/>
									</defs>
									<clipPath id="SVGID_62_">
										<use xlink:href="#SVGID_61_"  style="overflow:visible;"/>
									</clipPath>
									<g class="st30">
										<g>
											<g>
												<defs>
													<polygon id="SVGID_63_" points="1,40.7 2,40.7 1,41.7 													"/>
												</defs>
												<defs>
													<polygon id="SVGID_64_" points="-1,38.7 -2,38.7 -1,37.7 													"/>
												</defs>
												<clipPath id="SVGID_65_">
													<use xlink:href="#SVGID_63_"  style="overflow:visible;"/>
												</clipPath>
												<clipPath id="SVGID_66_" class="st31">
													<use xlink:href="#SVGID_64_"  style="overflow:visible;"/>
												</clipPath>
												
													<linearGradient id="SVGID_67_" gradientUnits="userSpaceOnUse" x1="216.0718" y1="1157.0223" x2="216.0718" y2="1168.3325" gradientTransform="matrix(1.8815 -0.1862 -0.4561 -4.6162 168.4982 5414.8672)">
													<stop  offset="0" style="stop-color:#000000"/>
													<stop  offset="0.1423" style="stop-color:#060606"/>
													<stop  offset="0.3377" style="stop-color:#181818"/>
													<stop  offset="0.5641" style="stop-color:#353535"/>
													<stop  offset="0.8117" style="stop-color:#5D5D5D"/>
													<stop  offset="0.9946" style="stop-color:#808080"/>
												</linearGradient>
												<path class="st32" d="M-25,34.9C4.3-32.4,68-36.2,118.9,24.8c-18.3,6.4-50.7,3.6-71.4,4.5L-25,34.9z"/>
											</g>
										</g>
										
											<linearGradient id="SVGID_68_" gradientUnits="userSpaceOnUse" x1="216.0718" y1="1157.0223" x2="216.0718" y2="1168.3325" gradientTransform="matrix(1.8815 -0.1862 -0.4561 -4.6162 168.4982 5414.8672)">
											<stop  offset="0" style="stop-color:#FFFFFF"/>
											<stop  offset="9.927747e-02" style="stop-color:#F9F9F9"/>
											<stop  offset="0.2358" style="stop-color:#E7E7E7"/>
											<stop  offset="0.3939" style="stop-color:#CACACA"/>
											<stop  offset="0.5683" style="stop-color:#A1A1A1"/>
											<stop  offset="0.756" style="stop-color:#6D6D6D"/>
											<stop  offset="0.952" style="stop-color:#2F2F2F"/>
											<stop  offset="0.9946" style="stop-color:#202020"/>
										</linearGradient>
										<path class="st33" d="M-25,34.9C4.3-32.4,68-36.2,118.9,24.8c-18.3,6.4-50.7,3.6-71.4,4.5L-25,34.9z"/>
									</g>
								</g>
							</g>
						</g>
					</g>
				</g>
			</g>
		</g>
	</g>
</g>
<g class="st34">
	<path class="st35" d="M14.2,6.7h2.2c1,0,1.6,0.7,1.6,1.5s-0.6,1.5-1.6,1.5h-1.2v1.7h-1V6.7z M16.2,7.6h-1.1v1.3h1.1
		c0.4,0,0.7-0.3,0.7-0.6C16.9,7.8,16.6,7.6,16.2,7.6z"/>
	<path class="st35" d="M18.5,6.7h1v3.8h2v0.9h-3V6.7z"/>
	<path class="st35" d="M25.1,10.6H23l-0.3,0.8h-1.1l1.8-4.6h1.2l1.8,4.6h-1.1L25.1,10.6z M23.3,9.7h1.5L24,7.6L23.3,9.7z"/>
	<path class="st35" d="M27.5,7.6h-1.4V6.7h3.7v0.9h-1.4v3.8h-1L27.5,7.6L27.5,7.6z"/>
	<path class="st35" d="M30.5,6.7h1v4.6h-1V6.7z"/>
	<path class="st35" d="M33.4,8.2v3.1h-1V6.7h1l2.2,3v-3h1v4.6h-1L33.4,8.2z"/>
	<path class="st35" d="M37.5,6.7h1v2.8c0,0.6,0.4,1.1,1.1,1.1c0.7,0,1.1-0.4,1.1-1.1V6.7h1v2.8c0,1.2-0.7,1.9-2.1,1.9
		c-1.4,0-2.1-0.8-2.1-1.9V6.7z"/>
	<path class="st35" d="M46.6,8l-1.3,3.3h-0.4L43.6,8v3.3h-1V6.7H44l1.1,2.9l1.1-2.9h1.4v4.6h-1V8z"/>
</g>
</svg>
